<?xml version="1.0" encoding="UTF-8"?>
<svg version="1.1" xmlns="http://www.w3.org/2000/svg" width="500" height="500">
<path d="M0 0 C1.74216797 0.57814453 1.74216797 0.57814453 3.51953125 1.16796875 C30.1504791 10.74766943 51.74565508 30.58209526 64 56 C75.68966221 81.83069809 76.88363746 111.59184545 67.1875 138.25 C56.96208642 164.75434804 36.99390761 186.17148212 11.06982422 197.87109375 C-15.03568022 209.04721106 -44.79768765 209.63737286 -71.29492188 199.3972168 C-81.99836228 195.06769094 -90.96363019 189.1694584 -100 182 C-101.02287109 181.19369141 -101.02287109 181.19369141 -102.06640625 180.37109375 C-120.98008476 164.84241363 -133.52976845 140.01547508 -137 116 C-138.02205253 98.90843542 -137.9984031 82.21853137 -132 66 C-131.61585938 64.90429688 -131.23171875 63.80859375 -130.8359375 62.6796875 C-120.9007311 36.79408171 -101.45981434 16.87327993 -76.6875 4.75 C-53.20969791 -5.60446063 -24.52099953 -8.2815697 0 0 Z " fill="#5DE0E5" transform="translate(282,139)"/>
<path d="M0 0 C5.74525736 3.70249919 7.35672098 7.76275289 9.125 14.1875 C9.30675781 14.84169922 9.48851562 15.49589844 9.67578125 16.16992188 C10.12199044 17.77862343 10.56164215 19.38914131 11 21 C16.34147209 20.5266328 16.34147209 20.5266328 21.42578125 18.9921875 C25.89394497 17.27001211 30.3013525 17.21806616 35 18 C37.96846899 19.6717502 38.35894724 20.77448251 40 24 C40.79291091 28.91260018 40.61075014 33.6832835 38 38 C34.76533558 39.90666376 31.19733543 41.0448477 27.67773438 42.31640625 C23.53604349 43.85689574 23.53604349 43.85689574 20.8203125 47.15234375 C21.08838514 51.40071238 22.47179687 55.08874469 23.9375 59.0625 C24.5145912 60.65557882 25.08640889 62.25058013 25.65234375 63.84765625 C25.91007568 64.54898682 26.16780762 65.25031738 26.43334961 65.97290039 C27 68 27 68 27 72 C29.3134359 71.5253725 31.62573019 71.04517721 33.9375 70.5625 C35.22527344 70.29566406 36.51304687 70.02882813 37.83984375 69.75390625 C40.84638879 69.32818384 40.84638879 69.32818384 42 68 C47.71314121 67.43988812 50.52280303 68.45989077 55 72 C57.62190354 74.62190354 57.48259726 76.08907113 57.6875 79.75 C57.58807563 85.28462329 57.58807563 85.28462329 55.33984375 88.01953125 C50.09177214 91.67559524 44.1766197 93.5299903 38 95 C38.51727917 101.13097651 38.51727917 101.13097651 40.0625 107.0625 C41.26922641 110.84357607 41.92843453 114.12792421 41 118 C38.83126049 121.86286125 36.27876775 125.18996927 32 126.7109375 C28.21659434 127.021295 25.40816169 126.02383241 22.3125 123.875 C18.05202105 119.84850616 16.66075596 114.38524323 14.9453125 108.94921875 C14.29304262 106.14053283 14.29304262 106.14053283 13 105 C6.51112164 105.4055549 1.03095874 107.22330325 -5 109.5625 C-5.87011719 109.89185547 -6.74023438 110.22121094 -7.63671875 110.56054688 C-9.76093854 111.36588295 -11.88175164 112.17911481 -14 113 C-13.3700551 117.97220983 -13.3700551 117.97220983 -11.9375 122.75 C-10.58473613 127.4395814 -10.48225684 132.14996479 -11 137 C-11.66 137.99 -12.32 138.98 -13 140 C-13.66 140 -14.32 140 -15 140 C-15 140.66 -15 141.32 -15 142 C-19.64893348 143.54964449 -24.73957352 143.97748172 -29.3125 142 C-34.14819421 136.26880687 -36.07486175 129.11717777 -38 122 C-41.44313025 122.41317563 -44.55876571 122.83331149 -47.8125 124.0625 C-52.24729394 125.36685116 -56.42129249 125.77838028 -61 125 C-64.0625 122.5625 -64.0625 122.5625 -66 120 C-66.495 119.505 -66.495 119.505 -67 119 C-67.64566515 114.10216862 -67.56607553 110.15392319 -65.375 105.6875 C-61.05249673 101.23823711 -53.75787722 99.76086637 -48 98 C-47.67 96.02 -47.34 94.04 -47 92 C-47.66 92 -48.32 92 -49 92 C-49.14622803 91.42967041 -49.29245605 90.85934082 -49.44311523 90.27172852 C-50.10434115 87.70105211 -50.77084771 85.13177426 -51.4375 82.5625 C-51.66759766 81.66466797 -51.89769531 80.76683594 -52.13476562 79.84179688 C-52.35712891 78.98779297 -52.57949219 78.13378906 -52.80859375 77.25390625 C-53.11494751 76.06776733 -53.11494751 76.06776733 -53.42749023 74.85766602 C-53.84032953 73.0038412 -53.84032953 73.0038412 -55 72 C-59.19092556 72.11469902 -63.15839108 72.71385297 -67.125 74.0625 C-70.70472103 75.22980034 -73.25376694 75.46827913 -77 75 C-80.63619552 72.9114758 -83.79668708 70.09126392 -85 66 C-85.42497365 62.10440822 -85.5279193 59.85853542 -83.453125 56.484375 C-80.37043292 53.36241295 -77.44204703 52.16394715 -73.375 50.6875 C-72.694375 50.42388672 -72.01375 50.16027344 -71.3125 49.88867188 C-66.34799107 48 -66.34799107 48 -64 48 C-64.28875 46.9378125 -64.5775 45.875625 -64.875 44.78125 C-65.25051276 43.35430151 -65.6254838 41.92721038 -66 40.5 C-66.28617188 39.45585937 -66.28617188 39.45585937 -66.578125 38.390625 C-67.85729 33.45670286 -68.38736991 29.1012798 -68 24 C-65.5625 21.0625 -65.5625 21.0625 -63 19 C-62.67 18.67 -62.34 18.34 -62 18 C-59.890625 17.76171875 -59.890625 17.76171875 -57.25 17.6875 C-55.95835937 17.63142578 -55.95835937 17.63142578 -54.640625 17.57421875 C-50.98790505 18.16319282 -49.57149948 19.3368101 -47 22 C-45.47774177 24.65562095 -44.32352461 27.41119236 -43.1875 30.25 C-42.72053711 31.36761719 -42.72053711 31.36761719 -42.24414062 32.5078125 C-41.48350174 34.33334582 -40.73999681 36.16600215 -40 38 C-33.96195209 37.45233126 -28.79479615 36.10876629 -23.125 34 C-22.36703125 33.72671875 -21.6090625 33.4534375 -20.828125 33.171875 C-16.85085074 31.73662993 -16.85085074 31.73662993 -13 30 C-12.72061498 26.27486638 -13.05220922 23.57927276 -14.5 20.1875 C-16.26710761 15.77395851 -16.80903584 11.71038644 -16 7 C-14.20622099 3.8774958 -12.79785562 2.45283697 -9.6875 0.6875 C-6.25145849 -0.19148736 -3.5359787 -0.37885486 0 0 Z " fill="#FA3333" transform="translate(263,170)"/>
<path d="M0 0 C2.82730777 5.81248552 4.82690747 11.53839875 6.38671875 17.8125 C6.79588829 19.95921249 6.79588829 19.95921249 8 21 C8.04080783 22.99958364 8.04254356 25.00045254 8 27 C-1.02446444 32.05130421 -10.51284815 35.71503308 -21 35 C-23.87584224 30.06998472 -25.08237833 25.05928184 -26.3515625 19.51171875 C-26.75320413 17.07749454 -26.75320413 17.07749454 -28 16 C-28.14115161 13.32941149 -28.04247107 10.67567762 -28 8 C-24.34730119 6.30122647 -20.67958466 4.63970881 -17 3 C-16.27554688 2.67 -15.55109375 2.34 -14.8046875 2 C-9.80543491 -0.10494846 -5.3890092 -0.33681307 0 0 Z " fill="#5FDFE4" transform="translate(260,224)"/>
<path d="M0 0 C1.30710938 -0.00128906 2.61421875 -0.00257813 3.9609375 -0.00390625 C4.63479492 -0.00181152 5.30865234 0.0002832 6.00292969 0.00244141 C8.05671574 0.00779742 10.11028315 0.00247805 12.1640625 -0.00390625 C13.47117188 -0.00261719 14.77828125 -0.00132812 16.125 0 C17.31222656 0.00112793 18.49945313 0.00225586 19.72265625 0.00341797 C22.9214496 0.12734783 25.92186223 0.53109594 29.0625 1.1328125 C29.0625 1.4628125 29.0625 1.7928125 29.0625 2.1328125 C27.91362305 2.14739502 26.76474609 2.16197754 25.58105469 2.17700195 C21.26435263 2.235557 16.9481415 2.3127793 12.63183594 2.39526367 C10.77384487 2.42824671 8.91576001 2.45635884 7.05761719 2.47924805 C-3.28802315 2.6100998 -13.02397917 2.80580001 -22.9375 6.1328125 C-24.09507812 6.51824219 -25.25265625 6.90367187 -26.4453125 7.30078125 C-27.74082031 7.80544922 -27.74082031 7.80544922 -29.0625 8.3203125 C-33.74648876 10.1328125 -33.74648876 10.1328125 -35.9375 10.1328125 C-35.9375 10.7928125 -35.9375 11.4528125 -35.9375 12.1328125 C-37.2575 12.1328125 -38.5775 12.1328125 -39.9375 12.1328125 C-39.9375 12.7928125 -39.9375 13.4528125 -39.9375 14.1328125 C-43.16541555 16.2847562 -44.22150809 16.33367693 -47.9375 16.1328125 C-35.59516197 5.65984319 -16.00270292 0.01520344 0 0 Z " fill="#74D6D8" transform="translate(241.9375,134.8671875)"/>
<path d="M0 0 C2.68387755 2.68387755 3.09546996 5.17101413 4.125 8.8125 C4.47820312 10.03582031 4.83140625 11.25914062 5.1953125 12.51953125 C5.88931765 15.52127195 6.17454331 17.94549201 6 21 C6.66 21 7.32 21 8 21 C8 22.98 8 24.96 8 27 C2.25 30 2.25 30 0 30 C0 29.34 0 28.68 0 28 C0.99 27.67 1.98 27.34 3 27 C2.34 26.34 1.68 25.68 1 25 C1.66 25 2.32 25 3 25 C3.26404456 18.13484138 2.25841946 11.74153283 1 5 C-0.32 5 -1.64 5 -3 5 C-3.33 4.34 -3.66 3.68 -4 3 C-4.515625 3.350625 -5.03125 3.70125 -5.5625 4.0625 C-8.94006667 5.3615641 -11.50468057 4.67217681 -15 4 C-10.25494171 1.44496861 -5.47067812 -0.60785312 0 0 Z " fill="#74D5D9" transform="translate(208,241)"/>
<path d="M0 0 C1.32 0.33 2.64 0.66 4 1 C4.33 3.31 4.66 5.62 5 8 C5.66 8 6.32 8 7 8 C7 9.65 7 11.3 7 13 C7.5775 12.67 8.155 12.34 8.75 12 C11 11 11 11 15 11 C15.33 12.32 15.66 13.64 16 15 C17.216875 14.67 18.43375 14.34 19.6875 14 C22.87210604 13.19677787 25.6972843 12.79358027 29 13 C25.87195054 15.0853663 23.19849808 16.05493825 19.625 17.1875 C18.50351563 17.55230469 17.38203125 17.91710937 16.2265625 18.29296875 C12.94072979 19.01298778 11.13458202 19.18098689 8 18 C6.7421875 16.43359375 6.7421875 16.43359375 5.875 14.4375 C5.39740234 13.36435547 5.39740234 13.36435547 4.91015625 12.26953125 C3.54509746 8.8656722 2.24865187 5.44865754 1 2 C0.67 1.34 0.34 0.68 0 0 Z " fill="#71D4D9" transform="translate(214,190)"/>
<path d="M0 0 C0.33 0 0.66 0 1 0 C1.20496094 0.91523438 1.40992188 1.83046875 1.62109375 2.7734375 C1.89050781 3.96195312 2.15992188 5.15046875 2.4375 6.375 C2.70433594 7.55835938 2.97117187 8.74171875 3.24609375 9.9609375 C3.85634695 12.89494581 3.85634695 12.89494581 5 15 C5.57290109 19.15353291 5.77335326 21.60890724 3.71875 25.3046875 C1.42786551 28.23077178 -0.48424504 30.57127369 -4.140625 31.60546875 C-7.22920863 31.72558034 -9.38391661 31.54809221 -11.734375 29.45703125 C-12.36085938 28.73580078 -12.36085938 28.73580078 -13 28 C-12.32453125 27.93941406 -11.6490625 27.87882812 -10.953125 27.81640625 C-9.61507813 27.69072266 -9.61507813 27.69072266 -8.25 27.5625 C-7.36828125 27.48128906 -6.4865625 27.40007812 -5.578125 27.31640625 C-3.30649548 27.03761535 -1.20148177 26.61209423 1 26 C1 24.35 1 22.7 1 21 C1.99 21.33 2.98 21.66 4 22 C3.72285156 21.07058594 3.44570313 20.14117187 3.16015625 19.18359375 C2.79792969 17.94738281 2.43570312 16.71117187 2.0625 15.4375 C1.70285156 14.21933594 1.34320313 13.00117188 0.97265625 11.74609375 C0.03960748 8.15254449 -0.63204043 4.69356882 -1 1 C-0.67 0.67 -0.34 0.34 0 0 Z " fill="#CE5354" transform="translate(299,265)"/>
<path d="M0 0 C1 2 1 2 0.4375 5.8125 C-0.07829217 9.45610882 0.1620397 11.71101842 2 15 C4.58926331 17.58926331 6.02705279 17.37398043 9.625 17.625 C10.62789062 17.69976562 11.63078125 17.77453125 12.6640625 17.8515625 C13.43492187 17.90054688 14.20578125 17.94953125 15 18 C15 17.34 15 16.68 15 16 C19.17737474 14.40861915 22.53160785 13.78721942 27 14 C27 14.66 27 15.32 27 16 C24.64856824 16.67789024 22.29461376 17.34240747 19.9375 18 C19.28072266 18.19078125 18.62394531 18.3815625 17.94726562 18.578125 C7.7890625 21.38038793 7.7890625 21.38038793 3.07421875 19.046875 C-1.05908239 15.1813652 -2.80983805 13.1298138 -3.3125 7.5 C-2.98892624 3.87597385 -2.47114386 2.57410819 0 0 Z " fill="#C55456" transform="translate(181,225)"/>
<path d="M0 0 C0.33 1.32 0.66 2.64 1 4 C2.32 3.34 3.64 2.68 5 2 C5.95178554 4.56982095 6.00609339 5.97088712 5.4375 8.6875 C4 11 4 11 1 11.875 C-2 12 -2 12 -4 11 C-4 8.36 -4 5.72 -4 3 C-3.34 3 -2.68 3 -2 3 C-2 2.34 -2 1.68 -2 1 C-1.34 0.67 -0.68 0.34 0 0 Z " fill="#FE3030" transform="translate(201,276)"/>
<path d="M0 0 C0.66 0 1.32 0 2 0 C3.59138085 4.17737474 4.21278058 7.53160785 4 12 C4.66 12 5.32 12 6 12 C6 15.96 6 19.92 6 24 C-0.40385663 26.37562423 -6.18686447 27.58751372 -13 28 C-10.37577203 26.25051469 -8.56738891 25.42389003 -5.625 24.5 C-2.35856017 23.45026322 0.83346782 22.32790059 4 21 C4.37705922 15.8468573 3.02042284 12.68738099 1 8 C0.49205839 5.32390022 0.23852953 2.71923663 0 0 Z " fill="#CF4F4F" transform="translate(263,230)"/>
<path d="M0 0 C0.33 0 0.66 0 1 0 C1 2.64 1 5.28 1 8 C4.465 7.505 4.465 7.505 8 7 C7.34 9.31 6.68 11.62 6 14 C9.63 14 13.26 14 17 14 C17 13.34 17 12.68 17 12 C19.31 12 21.62 12 24 12 C20.34116286 15.65883714 15.94199619 16.17646071 10.9375 16.4375 C6.95931225 16.37758753 6.21080675 16.16778497 2.9375 13.5625 C2.298125 12.716875 1.65875 11.87125 1 11 C0.67 10.67 0.34 10.34 0 10 C-0.07205511 8.31391034 -0.08386068 6.62499341 -0.0625 4.9375 C-0.05347656 4.01839844 -0.04445312 3.09929687 -0.03515625 2.15234375 C-0.02355469 1.44207031 -0.01195312 0.73179687 0 0 Z " fill="#E34041" transform="translate(196,279)"/>
<path d="M0 0 C-0.556875 0.268125 -1.11375 0.53625 -1.6875 0.8125 C-4.03592131 1.95691449 -4.03592131 1.95691449 -6.1875 3.5 C-9.39145602 5.20877655 -12.31712145 5.81844519 -15.84765625 6.546875 C-18.46531554 7.09796117 -20.67096704 7.65904163 -23 9 C-25.12847118 12.64880774 -25.19355538 15.83855932 -25 20 C-27.12046792 16.46588679 -27.53199289 13.05606165 -28 9 C-22.93614105 6.20971037 -17.78386123 4.1075568 -12.3125 2.25 C-11.35041626 1.91609253 -11.35041626 1.91609253 -10.36889648 1.57543945 C-6.80582788 0.3963843 -3.75397498 -0.25839981 0 0 Z " fill="#89C8CB" transform="translate(276,274)"/>
<path d="M0 0 C0 0.66 0 1.32 0 2 C-1.65 2.33 -3.3 2.66 -5 3 C-5 3.66 -5 4.32 -5 5 C-6.65 5 -8.3 5 -10 5 C-10.33 5.99 -10.66 6.98 -11 8 C-12.65 8 -14.3 8 -16 8 C-15.855625 8.60328125 -15.71125 9.2065625 -15.5625 9.828125 C-15.376875 10.62734375 -15.19125 11.4265625 -15 12.25 C-14.814375 13.03890625 -14.62875 13.8278125 -14.4375 14.640625 C-14 17 -14 17 -14 21 C-13.34 21 -12.68 21 -12 21 C-12 22.98 -12 24.96 -12 27 C-13.97929118 24.03106324 -15.02741785 21.48379381 -16.1875 18.125 C-16.55230469 17.09632813 -16.91710937 16.06765625 -17.29296875 15.0078125 C-18.05210668 11.77833072 -18.22662989 10.079736 -17 7 C-14.890625 5.48828125 -14.890625 5.48828125 -12.25 4.3125 C-11.38890625 3.91675781 -10.5278125 3.52101562 -9.640625 3.11328125 C-8.76921875 2.74589844 -7.8978125 2.37851563 -7 2 C-5.66195313 1.43345703 -5.66195313 1.43345703 -4.296875 0.85546875 C-2 0 -2 0 0 0 Z " fill="#8CC4C5" transform="translate(301,208)"/>
<path d="M0 0 C0.66 0.33 1.32 0.66 2 1 C2 2.98 2 4.96 2 7 C-7.02446444 12.05130421 -16.51284815 15.71503308 -27 15 C-28.06775224 13.03533587 -29.06553465 11.03144641 -30 9 C-29.67 8.34 -29.34 7.68 -29 7 C-28.71125 7.639375 -28.4225 8.27875 -28.125 8.9375 C-27.17176549 11.15206079 -27.17176549 11.15206079 -25 12 C-22.30986661 12.18704404 -19.70313823 12.08581391 -17 12 C-16.67 11.67 -16.34 11.34 -16 11 C-14.00041636 10.95919217 -11.99954746 10.95745644 -10 11 C-10 10.34 -10 9.68 -10 9 C-5.05 7.515 -5.05 7.515 0 6 C0 4.02 0 2.04 0 0 Z " fill="#93BCBE" transform="translate(266,244)"/>
<path d="M0 0 C2.9375 2 2.9375 2 5 4 C4.67 4.66 4.34 5.32 4 6 C3.34 5.34 2.68 4.68 2 4 C-0.5637893 3.64223834 -0.5637893 3.64223834 -3.4375 3.6875 C-4.40558594 3.67074219 -5.37367188 3.65398437 -6.37109375 3.63671875 C-9.39032073 4.05393734 -10.06585196 4.75828102 -12 7 C-12.66 7 -13.32 7 -14 7 C-14.33 9.97 -14.66 12.94 -15 16 C-15.33 16 -15.66 16 -16 16 C-16.62108626 8.08115016 -16.62108626 8.08115016 -14.3125 4.0625 C-9.88317344 0.11201955 -5.88520037 -0.63055718 0 0 Z " fill="#C85F5F" transform="translate(263,170)"/>
<path d="M0 0 C1.37478516 0.01740234 1.37478516 0.01740234 2.77734375 0.03515625 C3.69644531 0.04417969 4.61554688 0.05320313 5.5625 0.0625 C6.27277344 0.07410156 6.98304688 0.08570313 7.71484375 0.09765625 C8.04484375 0.75765625 8.37484375 1.41765625 8.71484375 2.09765625 C7.68423828 2.04544922 7.68423828 2.04544922 6.6328125 1.9921875 C5.73175781 1.96511719 4.83070313 1.93804687 3.90234375 1.91015625 C2.56236328 1.85794922 2.56236328 1.85794922 1.1953125 1.8046875 C-1.7452929 2.1520031 -2.39010479 2.92944421 -4.28515625 5.09765625 C-4.94515625 5.09765625 -5.60515625 5.09765625 -6.28515625 5.09765625 C-6.28515625 8.72765625 -6.28515625 12.35765625 -6.28515625 16.09765625 C-5.62515625 16.09765625 -4.96515625 16.09765625 -4.28515625 16.09765625 C-3.95515625 20.71765625 -3.62515625 25.33765625 -3.28515625 30.09765625 C-3.61515625 30.09765625 -3.94515625 30.09765625 -4.28515625 30.09765625 C-4.96401612 27.60042173 -5.62833052 25.10069484 -6.28515625 22.59765625 C-6.4759375 21.9015625 -6.66671875 21.20546875 -6.86328125 20.48828125 C-8.14244625 15.55435911 -8.67252616 11.19893605 -8.28515625 6.09765625 C-5.84765625 3.16015625 -5.84765625 3.16015625 -3.28515625 1.09765625 C-2.28515625 0.09765625 -2.28515625 0.09765625 0 0 Z " fill="#C25A5D" transform="translate(203.28515625,187.90234375)"/>
<path d="M0 0 C2.51699845 2.51699845 3.10964078 4.57554146 4 8 C3.625 10.375 3.625 10.375 3 12 C1.5393715 9.35261084 1 8.10551666 1 5 C-0.32 5 -1.64 5 -3 5 C-3.33 4.34 -3.66 3.68 -4 3 C-4.515625 3.350625 -5.03125 3.70125 -5.5625 4.0625 C-8.94006667 5.3615641 -11.50468057 4.67217681 -15 4 C-10.25494171 1.44496861 -5.47067812 -0.60785312 0 0 Z " fill="#84C7CB" transform="translate(208,241)"/>
<path d="M0 0 C0.99 0 1.98 0 3 0 C4.05243044 14.21616351 4.05243044 14.21616351 1.7578125 18.10546875 C-0.13497381 19.52287785 -1.74873469 20.27696589 -4 21 C-4.76828125 21.2475 -5.5365625 21.495 -6.328125 21.75 C-10.26653948 22.7932886 -13.05859039 23.22779803 -17 22 C-16.19175781 21.75765625 -15.38351562 21.5153125 -14.55078125 21.265625 C-6.65912827 18.79636205 -6.65912827 18.79636205 0 14 C0.66 14 1.32 14 2 14 C1.85923685 12.0412957 1.7122324 10.08303907 1.5625 8.125 C1.48128906 7.03445312 1.40007812 5.94390625 1.31640625 4.8203125 C1.16998297 2.05271029 1.16998297 2.05271029 0 0 Z " fill="#94A9AC" transform="translate(318,242)"/>
<path d="M0 0 C5.7282577 -0.45826062 8.4998494 0.44174139 13 4 C15 6 15 6 15.1953125 8.8203125 C15.17210937 9.91085938 15.14890625 11.00140625 15.125 12.125 C15.10695313 13.22070312 15.08890625 14.31640625 15.0703125 15.4453125 C15.04710937 16.28835937 15.02390625 17.13140625 15 18 C14.67 18 14.34 18 14 18 C14 14.7 14 11.4 14 8 C12.68 8 11.36 8 10 8 C10 7.34 10 6.68 10 6 C9.34 5.67 8.68 5.34 8 5 C8.33 4.67 8.66 4.34 9 4 C5.7 3.34 2.4 2.68 -1 2 C-0.67 1.34 -0.34 0.68 0 0 Z " fill="#D4494C" transform="translate(305,238)"/>
<path d="M0 0 C5.00868239 0.51813956 9.21118359 1.40372786 14 3 C14.66 2.67 15.32 2.34 16 2 C16.99 2.33 17.98 2.66 19 3 C19 3.66 19 4.32 19 5 C22.3 5.66 25.6 6.32 29 7 C29 7.33 29 7.66 29 8 C22.76176826 8.39255631 17.61703595 6.97932761 11.6875 5.125 C10.78193359 4.85558594 9.87636719 4.58617187 8.94335938 4.30859375 C2.2675047 2.2675047 2.2675047 2.2675047 0 0 Z " fill="#6CD5D9" transform="translate(207,336)"/>
<path d="M0 0 C2.49505962 2.49505962 2.35948376 3.67328888 2.625 7.125 C2.69976562 8.03507813 2.77453125 8.94515625 2.8515625 9.8828125 C2.90054688 10.58148438 2.94953125 11.28015625 3 12 C0.54524486 13.03028044 -1.91314351 14.04945504 -4.375 15.0625 C-5.07367188 15.35705078 -5.77234375 15.65160156 -6.4921875 15.95507812 C-8.30504908 16.69591098 -10.15123143 17.35396964 -12 18 C-12.66 17.67 -13.32 17.34 -14 17 C-13.67 16.34 -13.34 15.68 -13 15 C-11.01017794 14.47807946 -9.01815493 13.96169214 -7.01171875 13.5078125 C-4.81691577 12.95378456 -2.95424904 12.13997861 -1 11 C-1.33 10.01 -1.66 9.02 -2 8 C-1.34 8 -0.68 8 0 8 C0 5.36 0 2.72 0 0 Z " fill="#87CACD" transform="translate(196,206)"/>
<path d="M0 0 C1.17455836 2.34911671 1.01075143 3.52762265 0.875 6.125 C0.80737704 10.33791019 1.69427219 13.29990293 3.33203125 17.13671875 C4.28147159 19.7851576 4.20834248 22.22210025 4 25 C3.01 25.33 2.02 25.66 1 26 C1.33 23.36 1.66 20.72 2 18 C1.34 18 0.68 18 0 18 C0 16.02 0 14.04 0 12 C-0.66 12 -1.32 12 -2 12 C-2.05422947 10.5629191 -2.09289723 9.12524538 -2.125 7.6875 C-2.14820313 6.88699219 -2.17140625 6.08648437 -2.1953125 5.26171875 C-2 3 -2 3 0 0 Z " fill="#94BFC3" transform="translate(247,175)"/>
<path d="M0 0 C0.66 0 1.32 0 2 0 C2 2.97 2 5.94 2 9 C1.01 9.33 0.02 9.66 -1 10 C-2.66710346 11.49985609 -2.66710346 11.49985609 -4 13 C-6.31 12.34 -8.62 11.68 -11 11 C-8 9 -8 9 -4.375 7.75 C-2.704375 6.88375 -2.704375 6.88375 -1 6 C0.05749557 2.91630113 0.05749557 2.91630113 0 0 Z " fill="#D94849" transform="translate(251,194)"/>
<path d="M0 0 C0.66 0 1.32 0 2 0 C2 1.65 2 3.3 2 5 C2.66 5 3.32 5 4 5 C6.56743145 13.77783996 6.56743145 13.77783996 4.375 18.5 C2.26215554 20.7240468 0.85654519 21.97980529 -2 23 C-1.01 21.7625 -1.01 21.7625 0 20.5 C2.97622589 15.99344519 2.47352649 11.58031808 1.5390625 6.48828125 C1.0676775 4.31239543 0.55868485 2.15492729 0 0 Z " fill="#8CC3C4" transform="translate(301,271)"/>
<path d="M0 0 C1.32 0.33 2.64 0.66 4 1 C4.33 3.31 4.66 5.62 5 8 C5.66 8 6.32 8 7 8 C7 9.65 7 11.3 7 13 C7.66 13 8.32 13 9 13 C9 14.32 9 15.64 9 17 C11.64 17 14.28 17 17 17 C14.73045358 18.42897367 13.19614074 18.99019296 10.5 19.125 C5.92903915 17.06806762 4.86631886 12.20622536 3.12109375 7.76171875 C2.3967422 5.84761103 1.69674023 3.92433016 1 2 C0.67 1.34 0.34 0.68 0 0 Z " fill="#94BDC0" transform="translate(214,190)"/>
<path d="M0 0 C1.79341438 4.16673521 0.01173384 7.74663341 -1.4375 11.75 C-1.68048828 12.44738281 -1.92347656 13.14476562 -2.17382812 13.86328125 C-2.77310248 15.57885098 -3.38529885 17.28989715 -4 19 C-4.33 19 -4.66 19 -5 19 C-4.979375 18.2575 -4.95875 17.515 -4.9375 16.75 C-4.85163817 14.06517244 -4.85163817 14.06517244 -5.75 11.9375 C-5.8325 11.298125 -5.915 10.65875 -6 10 C-4.68945377 8.64426252 -3.35251497 7.31387169 -2 6 C-0.73215876 2.86649283 -0.73215876 2.86649283 0 0 Z " fill="#6ED8DC" transform="translate(352,261)"/>
<path d="M0 0 C4.8274799 1.41292095 8.7162359 3.42974154 13 6 C10.50907189 7.24546405 9.58919267 6.7767578 7 6 C7 6.66 7 7.32 7 8 C4.625 7.375 4.625 7.375 2 6 C0.6875 2.875 0.6875 2.875 0 0 Z " fill="#66D9DB" transform="translate(291,143)"/>
<path d="M0 0 C0 0.99 0 1.98 0 3 C-1.32 2.67 -2.64 2.34 -4 2 C-3.67 3.32 -3.34 4.64 -3 6 C-3.99 6.33 -4.98 6.66 -6 7 C-6.33 6.01 -6.66 5.02 -7 4 C-7.66 4 -8.32 4 -9 4 C-9 4.66 -9 5.32 -9 6 C-9.66 5.67 -10.32 5.34 -11 5 C-7.6240914 0.45998499 -5.71800716 -1.77455395 0 0 Z " fill="#EF373A" transform="translate(208,273)"/>
<path d="M0 0 C2.33881007 2.12619097 3.94038762 3.99776492 5 7 C4.625 9.75 4.625 9.75 4 12 C-2.28571429 14.42857143 -2.28571429 14.42857143 -6 13 C-4.865625 12.62875 -3.73125 12.2575 -2.5625 11.875 C-0.6185869 11.13362127 -0.6185869 11.13362127 1 10 C2.05749557 6.91630113 2.05749557 6.91630113 2 4 C1.34 4 0.68 4 0 4 C0 2.68 0 1.36 0 0 Z " fill="#CE585C" transform="translate(214,258)"/>
<path d="M0 0 C4.00972202 3.67557852 6.45335415 7.18966896 9 12 C6.125 11.6875 6.125 11.6875 3 11 C0.43383368 7.15075052 0.44902324 4.5650696 0 0 Z " fill="#67D7D9" transform="translate(330,172)"/>
<path d="M0 0 C1.21816406 0.03480469 1.21816406 0.03480469 2.4609375 0.0703125 C3.68683594 0.09738281 3.68683594 0.09738281 4.9375 0.125 C5.87722656 0.15980469 5.87722656 0.15980469 6.8359375 0.1953125 C7.53293302 1.64913147 8.21827616 3.10854203 8.8984375 4.5703125 C9.28128906 5.38242188 9.66414063 6.19453125 10.05859375 7.03125 C10.31511719 7.74539062 10.57164062 8.45953125 10.8359375 9.1953125 C10.5059375 9.8553125 10.1759375 10.5153125 9.8359375 11.1953125 C8.3509375 8.2253125 8.3509375 8.2253125 6.8359375 5.1953125 C5.5159375 5.1953125 4.1959375 5.1953125 2.8359375 5.1953125 C3.1659375 3.8753125 3.4959375 2.5553125 3.8359375 1.1953125 C1.1959375 1.5253125 -1.4440625 1.8553125 -4.1640625 2.1953125 C-2.1640625 0.1953125 -2.1640625 0.1953125 0 0 Z " fill="#8FBBBD" transform="translate(253.1640625,223.8046875)"/>
<path d="M0 0 C2.64 1.98 5.28 3.96 8 6 C7.01 6.33 6.02 6.66 5 7 C4.67 7.66 4.34 8.32 4 9 C2.68 8.67 1.36 8.34 0 8 C0 5.36 0 2.72 0 0 Z " fill="#66D7DC" transform="translate(315,157)"/>
<path d="M0 0 C1.4540625 0.0309375 1.4540625 0.0309375 2.9375 0.0625 C2.9375 0.7225 2.9375 1.3825 2.9375 2.0625 C-3.39087252 4.49296191 -9.30034552 5.65310025 -16.0625 6.0625 C-13.37748843 4.27249229 -11.46169848 3.4407523 -8.4375 2.5 C-0.46254525 0.0094397 -0.46254525 0.0094397 0 0 Z " fill="#D74A49" transform="translate(266.0625,251.9375)"/>
<path d="M0 0 C0.33 1.65 0.66 3.3 1 5 C1.66 5 2.32 5 3 5 C3 6.98 3 8.96 3 11 C3.66 11 4.32 11 5 11 C5 12.98 5 14.96 5 17 C2.52813545 14.03653214 1.33751639 11.45958311 0.3125 7.75 C0.06113281 6.85796875 -0.19023437 5.9659375 -0.44921875 5.046875 C-0.63097656 4.37140625 -0.81273437 3.6959375 -1 3 C-2.65 2.67 -4.3 2.34 -6 2 C-2.25 0 -2.25 0 0 0 Z " fill="#C95153" transform="translate(226,289)"/>
<path d="M0 0 C1.91635217 -0.05423638 3.83314925 -0.09289963 5.75 -0.125 C7.35101563 -0.15980469 7.35101563 -0.15980469 8.984375 -0.1953125 C11.92470106 -0.00487687 13.52361878 0.47329896 16 2 C15.67 2.99 15.34 3.98 15 5 C13.9790625 4.2575 13.9790625 4.2575 12.9375 3.5 C8.30055044 1.13219597 4.57361575 1.49525533 -0.3125 3.0625 C-1.199375 3.371875 -2.08625 3.68125 -3 4 C-3.66 3.67 -4.32 3.34 -5 3 C-3.35 2.67 -1.7 2.34 0 2 C0 1.34 0 0.68 0 0 Z " fill="#8EC3C5" transform="translate(302,237)"/>
<path d="M0 0 C0.66 0.33 1.32 0.66 2 1 C-0.89867382 5.12503582 -3.4501959 6.91467312 -8 9 C-9.35863401 9.96534522 -10.70343137 10.95277149 -12 12 C-12.66 11.67 -13.32 11.34 -14 11 C-9.38 7.37 -4.76 3.74 0 0 Z " fill="#71D7D7" transform="translate(192,151)"/>
<path d="M0 0 C2 1 2 1 3.18359375 4.01953125 C4.01694643 6.54035819 4.85027988 9.06119148 5.68359375 11.58203125 C6.83670432 14.57601271 7.92370236 16.59682168 10 19 C6.090805 17.51720189 4.79234865 15.7405537 3 12 C0 3.26146789 0 3.26146789 0 0 Z " fill="#91C1C2" transform="translate(276,275)"/>
<path d="M0 0 C-0.556875 0.268125 -1.11375 0.53625 -1.6875 0.8125 C-4.03827955 1.93537 -4.03827955 1.93537 -6.0625 3.5625 C-10.51597643 5.74186081 -15.09932097 5.75110387 -20 6 C-17.02187403 4.01458269 -14.50156031 3.01174724 -11.125 1.875 C-10.09632813 1.52179688 -9.06765625 1.16859375 -8.0078125 0.8046875 C-5.17280569 0.04623113 -2.91359176 -0.16126892 0 0 Z " fill="#98B6B9" transform="translate(276,274)"/>
<path d="M0 0 C0.66 0.33 1.32 0.66 2 1 C2 2.98 2 4.96 2 7 C-3.66507011 10.08900201 -8.50857435 12.57664615 -15 13 C-14.67 12.34 -14.34 11.68 -14 11 C-12.68 11 -11.36 11 -10 11 C-10 10.34 -10 9.68 -10 9 C-5.05 7.515 -5.05 7.515 0 6 C0 4.02 0 2.04 0 0 Z " fill="#9DB0B3" transform="translate(266,244)"/>
<path d="M0 0 C0.66 0.33 1.32 0.66 2 1 C1.67 3.31 1.34 5.62 1 8 C0.01 8 -0.98 8 -2 8 C-2.99 10.97 -3.98 13.94 -5 17 C-5.66 16.67 -6.32 16.34 -7 16 C-6.21012527 14.08259417 -5.41802852 12.16610359 -4.625 10.25 C-3.96371094 8.64898437 -3.96371094 8.64898437 -3.2890625 7.015625 C-2.26692415 4.62444074 -1.19786405 2.30616817 0 0 Z " fill="#71D5DA" transform="translate(157,189)"/>
<path d="M0 0 C2.31 0 4.62 0 7 0 C2.59900136 4.40099864 -2.95475499 4.23002882 -8.828125 4.265625 C-11 4 -11 4 -13 2 C-8.71 2 -4.42 2 0 2 C0 1.34 0 0.68 0 0 Z " fill="#C45759" transform="translate(213,291)"/>
<path d="M0 0 C0 3 0 3 -0.17578125 5.26953125 C-0.42296736 9.86719294 -0.57287613 12.99814057 2.5 16.625 C3.325 17.40875 4.15 18.1925 5 19 C3.35 19.33 1.7 19.66 0 20 C-2.54547283 14.27268612 -2.6273833 8.16311834 -2 2 C-1.34 1.34 -0.68 0.68 0 0 Z " fill="#91B2B3" transform="translate(197,276)"/>
<path d="M0 0 C2 3 2 3 2 5 C3.65 5.33 5.3 5.66 7 6 C7.33 6.99 7.66 7.98 8 9 C3.32894208 7.44298069 -0.08705685 4.91552627 -4 2 C-2.68 1.34 -1.36 0.68 0 0 Z " fill="#6BD8D8" transform="translate(190,322)"/>
<path d="M0 0 C0.99 0.495 0.99 0.495 2 1 C2 1.66 2 2.32 2 3 C2.66 3 3.32 3 4 3 C4.125 9.75 4.125 9.75 3 12 C2.34 12 1.68 12 1 12 C0.67 8.04 0.34 4.08 0 0 Z " fill="#85C1C1" transform="translate(251,294)"/>
<path d="M0 0 C2.10409639 -0.02701408 4.20829178 -0.04640223 6.3125 -0.0625 C7.48425781 -0.07410156 8.65601563 -0.08570313 9.86328125 -0.09765625 C13 0 13 0 16 1 C16.33 2.98 16.66 4.96 17 7 C16.443125 6.175 15.88625 5.35 15.3125 4.5 C13.12368522 2.22798466 11.9853313 1.99849051 8.7734375 1.66796875 C5.50330601 1.68577992 2.26281229 1.78502701 -1 2 C-0.67 1.34 -0.34 0.68 0 0 Z " fill="#8BC0C0" transform="translate(286,187)"/>
<path d="M0 0 C0.66 0.66 1.32 1.32 2 2 C4.66949409 2.24315656 4.66949409 2.24315656 7.625 2.125 C8.62789062 2.10695313 9.63078125 2.08890625 10.6640625 2.0703125 C11.82035156 2.03550781 11.82035156 2.03550781 13 2 C12.01 3.485 12.01 3.485 11 5 C6.82339427 5.26518132 3.95659266 5.31886422 0 4 C0 2.68 0 1.36 0 0 Z " fill="#D14E52" transform="translate(237,256)"/>
<path d="M0 0 C0.845625 0.309375 1.69125 0.61875 2.5625 0.9375 C6.0497854 2.01538821 9.38177535 2.56581304 13 3 C13 3.33 13 3.66 13 4 C11.23086176 4.22226864 9.45955629 4.42733873 7.6875 4.625 C6.70136719 4.74101562 5.71523438 4.85703125 4.69921875 4.9765625 C2 5 2 5 -1 3 C-0.67 2.01 -0.34 1.02 0 0 Z " fill="#74D8DA" transform="translate(283,293)"/>
<path d="M0 0 C0.99 0.495 0.99 0.495 2 1 C2.8515625 3.6171875 2.8515625 3.6171875 3.625 6.875 C4.01558594 8.47988281 4.01558594 8.47988281 4.4140625 10.1171875 C5 13 5 13 5 16 C4.34 16 3.68 16 3 16 C3 14.02 3 12.04 3 10 C2.34 10 1.68 10 1 10 C0.67 6.7 0.34 3.4 0 0 Z " fill="#C95756" transform="translate(232,240)"/>
<path d="M0 0 C0.66 0.33 1.32 0.66 2 1 C1.01 1.33 0.02 1.66 -1 2 C-1 3.65 -1 5.3 -1 7 C-0.34 7 0.32 7 1 7 C1.33 10.3 1.66 13.6 2 17 C-0.91707899 14.08292101 -1.88789821 10.9477686 -2.125 6.828125 C-2.125 4.88496989 -2.06696555 2.94200087 -2 1 C-1.34 0.67 -0.68 0.34 0 0 Z " fill="#8AC9CC" transform="translate(234,231)"/>
<path d="M0 0 C0.66 0.33 1.32 0.66 2 1 C1.34 2.32 0.68 3.64 0 5 C-0.66 5 -1.32 5 -2 5 C-2.33 7.97 -2.66 10.94 -3 14 C-3.33 14 -3.66 14 -4 14 C-4.63019694 5.96498906 -4.63019694 5.96498906 -2 1.9375 C-1.34 1.298125 -0.68 0.65875 0 0 Z " fill="#C15656" transform="translate(251,172)"/>
<path d="M0 0 C-2.7596861 1.83979073 -4.29741882 2.48323221 -7.4375 3.1875 C-8.19933594 3.36667969 -8.96117187 3.54585938 -9.74609375 3.73046875 C-12.12958496 4.0154963 -13.73104204 3.72875415 -16 3 C-14.08802961 2.29954544 -12.17019565 1.615081 -10.25 0.9375 C-9.18265625 0.55464844 -8.1153125 0.17179687 -7.015625 -0.22265625 C-4.07719958 -0.98010011 -2.77651052 -1.07151741 0 0 Z " fill="#91C2C6" transform="translate(317,261)"/>
<path d="M0 0 C2.64 0.33 5.28 0.66 8 1 C5.06626269 2.95582488 2.21783702 4.56224304 -1 6 C-1.66 5.67 -2.32 5.34 -3 5 C-2.505 4.54625 -2.01 4.0925 -1.5 3.625 C0.22609337 2.12364481 0.22609337 2.12364481 0 0 Z " fill="#D24D4E" transform="translate(235,226)"/>
<path d="M0 0 C-2.6860286 1.79068573 -4.6626589 2.66055791 -7.6875 3.625 C-8.49574219 3.88539063 -9.30398438 4.14578125 -10.13671875 4.4140625 C-10.75160156 4.60742188 -11.36648438 4.80078125 -12 5 C-10.21875 1.09375 -10.21875 1.09375 -8.25 0.25 C-5.48552496 -0.05716389 -2.77898594 -0.06315877 0 0 Z " fill="#D5484B" transform="translate(297,209)"/>
<path d="M0 0 C0.33 0 0.66 0 1 0 C1.33 3.96 1.66 7.92 2 12 C1.67 11.34 1.34 10.68 1 10 C0.34 10 -0.32 10 -1 10 C-1.02689216 8.52093108 -1.04634621 7.04172517 -1.0625 5.5625 C-1.07410156 4.73878906 -1.08570313 3.91507813 -1.09765625 3.06640625 C-1 1 -1 1 0 0 Z " fill="#8DC6CC" transform="translate(194,194)"/>
<path d="M0 0 C0.99 0.495 0.99 0.495 2 1 C2.8515625 3.72265625 2.8515625 3.72265625 3.625 7.0625 C3.88539063 8.16722656 4.14578125 9.27195313 4.4140625 10.41015625 C4.60742188 11.26480469 4.80078125 12.11945313 5 13 C4.34 12.67 3.68 12.34 3 12 C3 11.34 3 10.68 3 10 C2.01 10 1.02 10 0 10 C0 6.7 0 3.4 0 0 Z " fill="#C55F61" transform="translate(268,176)"/>
<path d="M0 0 C2.91517292 1.07401108 4.77810176 1.77810176 7 4 C6.625 6.125 6.625 6.125 6 8 C4.9970458 6.85675161 3.99770973 5.71032809 3 4.5625 C2.443125 3.92441406 1.88625 3.28632813 1.3125 2.62890625 C0 1 0 1 0 0 Z " fill="#69D8D9" transform="translate(166,303)"/>
<path d="M0 0 C0 3.39593478 -0.52165948 4.06619881 -2.5 6.6875 C-2.9640625 7.31011719 -3.428125 7.93273437 -3.90625 8.57421875 C-4.2671875 9.04472656 -4.628125 9.51523437 -5 10 C-5.33 8.68 -5.66 7.36 -6 6 C-5.34 6 -4.68 6 -4 6 C-3.71125 5.195625 -3.4225 4.39125 -3.125 3.5625 C-2 1 -2 1 0 0 Z " fill="#73D7D9" transform="translate(337,297)"/>
<path d="M0 0 C0 0.66 0 1.32 0 2 C-1.65 2.33 -3.3 2.66 -5 3 C-5 3.66 -5 4.32 -5 5 C-7.64 5 -10.28 5 -13 5 C-3.38461538 0 -3.38461538 0 0 0 Z " fill="#CA5457" transform="translate(199,218)"/>
<path d="M0 0 C0.66 0.33 1.32 0.66 2 1 C2 3.97 2 6.94 2 10 C1.01 10.33 0.02 10.66 -1 11 C-0.67 7.37 -0.34 3.74 0 0 Z " fill="#A0A5A7" transform="translate(303,194)"/>
<path d="M0 0 C2.31 0.66 4.62 1.32 7 2 C7 3.65 7 5.3 7 7 C5.83040013 6.02433888 4.66438823 5.044375 3.5 4.0625 C2.8503125 3.51722656 2.200625 2.97195313 1.53125 2.41015625 C1.0259375 1.94480469 0.520625 1.47945313 0 1 C0 0.67 0 0.34 0 0 Z " fill="#6FD7DC" transform="translate(176,314)"/>
<path d="M0 0 C0 0.99 0 1.98 0 3 C-2.64 2.67 -5.28 2.34 -8 2 C-6.14210462 -1.71579076 -3.44525918 -1.06921837 0 0 Z " fill="#D74A4E" transform="translate(208,273)"/>
<path d="M0 0 C2.64 0 5.28 0 8 0 C8 0.66 8 1.32 8 2 C5.36 2.33 2.72 2.66 0 3 C0 2.01 0 1.02 0 0 Z " fill="#6ED9E0" transform="translate(236,313)"/>
<path d="M0 0 C2.97 0.495 2.97 0.495 6 1 C6.33 2.32 6.66 3.64 7 5 C3.74572241 4.43891766 2.12035493 3.54442592 0 1 C0 0.67 0 0.34 0 0 Z " fill="#E53C3E" transform="translate(231,306)"/>
<path d="M0 0 C0.66 0 1.32 0 2 0 C0.8141763 3.37503669 -0.27573689 5.64722731 -3 8 C-3 6.35 -3 4.7 -3 3 C-2.01 2.67 -1.02 2.34 0 2 C0 1.34 0 0.68 0 0 Z " fill="#6FD6D7" transform="translate(341,289)"/>
<path d="M0 0 C0.66 0.33 1.32 0.66 2 1 C1.67 4.3 1.34 7.6 1 11 C0.67 11 0.34 11 0 11 C-1.125 3.375 -1.125 3.375 0 0 Z " fill="#69DBE0" transform="translate(236,240)"/>
<path d="M0 0 C1 2 1 2 0.44140625 4.1640625 C0.15136719 4.97617188 -0.13867188 5.78828125 -0.4375 6.625 C-0.72496094 7.44226563 -1.01242188 8.25953125 -1.30859375 9.1015625 C-1.53675781 9.72804687 -1.76492187 10.35453125 -2 11 C-2.33 11 -2.66 11 -3 11 C-3.36923077 4.6 -3.36923077 4.6 -1.5 1.5625 C-1.005 1.046875 -0.51 0.53125 0 0 Z " fill="#BF676B" transform="translate(181,225)"/>
<path d="M0 0 C0 2.31 0 4.62 0 7 C-0.99 6.67 -1.98 6.34 -3 6 C-3 4.35 -3 2.7 -3 1 C-1 0 -1 0 0 0 Z " fill="#D65452" transform="translate(232,232)"/>
</svg>
